<?xml version="1.0" encoding="utf-8"?>
<!-- Generator: Adobe Illustrator 24.2.1, SVG Export Plug-In . SVG Version: 6.00 Build 0)  -->
<svg version="1.1" id="图层_1" xmlns="http://www.w3.org/2000/svg" xmlns:xlink="http://www.w3.org/1999/xlink" x="0px" y="0px"
	 width="16px" height="16px" viewBox="0 0 16 16" style="enable-background:new 0 0 16 16;" xml:space="preserve">
<style type="text/css">
	.st0{fill:#FFFFFF;}
	.st1{opacity:0.85;}
	.st2{opacity:0.85;fill:#FFFFFF;}
	.st3{opacity:0.85;fill:#FFFFFF;enable-background:new    ;}
</style>
<path id="路径_71" class="st3" d="M11,2h-1c0-0.6-0.4-1-1-1H7C6.4,1,6,1.4,6,2H5c0-1.1,0.9-2,2-2h2C10.1,0,11,0.9,11,2z"/>
<path id="矩形_74" class="st3" d="M1.5,2h13C14.8,2,15,2.2,15,2.5l0,0C15,2.8,14.8,3,14.5,3h-13C1.2,3,1,2.8,1,2.5l0,0
	C1,2.2,1.2,2,1.5,2z"/>
<path id="路径_72" class="st3" d="M13.9,3l-0.8,10.1c-0.1,1-1,1.9-2,1.9H4.8c-1,0-1.9-0.8-2-1.9L2.1,3h1l0.8,10.1
	c0,0.5,0.5,0.9,1,0.9h6.3c0.5,0,1-0.4,1-0.9L12.9,3H13.9z"/>
<path id="矩形_103" class="st3" d="M9.5,5L9.5,5C9.8,5,10,5.2,10,5.5v7c0,0.3-0.2,0.5-0.5,0.5l0,0C9.2,13,9,12.8,9,12.5v-7
	C9,5.2,9.2,5,9.5,5z"/>
<path id="矩形_104" class="st3" d="M6.5,5L6.5,5C6.8,5,7,5.2,7,5.5v7C7,12.8,6.8,13,6.5,13l0,0C6.2,13,6,12.8,6,12.5v-7
	C6,5.2,6.2,5,6.5,5z"/>
</svg>
