<?xml version="1.0" encoding="utf-8"?>
<!-- Generator: Adobe Illustrator 24.2.1, SVG Export Plug-In . SVG Version: 6.00 Build 0)  -->
<svg version="1.1" id="图层_1" xmlns="http://www.w3.org/2000/svg" xmlns:xlink="http://www.w3.org/1999/xlink" x="0px" y="0px"
	 width="20px" height="22px" viewBox="0 0 20 22" style="enable-background:new 0 0 20 22;" xml:space="preserve">
<style type="text/css">
	.st0{fill:#FFFFFF;}
	.st1{opacity:0.85;}
	.st2{opacity:0.85;fill:#FFFFFF;}
	.st3{opacity:0.85;fill:#FFFFFF;enable-background:new    ;}
</style>
<g class="st1">
	<polyline class="st0" points="4.6,11.9 14.5,4.1 16.5,2.5 	"/>
	<path class="st0" d="M4.6,12.4c-0.1,0-0.3-0.1-0.4-0.2C4,12,4.1,11.6,4.3,11.5l11.9-9.4c0.2-0.2,0.5-0.1,0.7,0.1
		c0.2,0.2,0.1,0.5-0.1,0.7L4.9,12.3C4.8,12.3,4.7,12.4,4.6,12.4z"/>
</g>
<g id="组_35_2_" transform="translate(-62.49 -1)" class="st1">
	<g id="组件_7_6_2_" transform="translate(63.025 1)">
		<g id="矩形_77" transform="translate(1.975)">
			<g>
				<path class="st0" d="M2.5,9.5C2.2,9.5,2,9.3,2,9V5c0-2.8,2.2-5,5-5c1.9,0,3.6,1,4.4,2.7c0.1,0.2,0,0.5-0.2,0.7
					c-0.2,0.1-0.5,0-0.7-0.2C9.8,1.8,8.5,1,7,1C4.8,1,3,2.8,3,5v4C3,9.3,2.8,9.5,2.5,9.5z"/>
			</g>
			<g>
				<path class="st0" d="M7,16c-1.9,0-3.6-1-4.4-2.7c-0.1-0.2,0-0.5,0.2-0.7c0.2-0.1,0.5,0,0.7,0.2C4.1,14.2,5.5,15,7,15
					c2.2,0,4-1.8,4-4V7c0-0.3,0.2-0.5,0.5-0.5S12,6.8,12,7v4C12,13.8,9.7,16,7,16z"/>
			</g>
		</g>
		<path id="矩形_78_2_" class="st0" d="M9,17.5L9,17.5c0.3,0,0.5,0.2,0.5,0.5v3c0,0.3-0.2,0.5-0.5,0.5l0,0c-0.3,0-0.5-0.2-0.5-0.5
			v-3C8.5,17.7,8.7,17.5,9,17.5z"/>
		<path id="矩形_79_2_" class="st0" d="M4.5,21h9c0.3,0,0.5,0.2,0.5,0.5l0,0c0,0.3-0.2,0.5-0.5,0.5h-9C4.2,22,4,21.8,4,21.5l0,0
			C4,21.2,4.2,21,4.5,21z"/>
		<g id="路径_79_2_">
			<path class="st0" d="M9,18.5c-3.9,0-7.2-3-7.5-7C1.5,11.3,1.7,11,2,11c0.3,0,0.5,0.2,0.5,0.5c0.2,3.6,3.4,6.3,6.9,6
				c3.2-0.2,5.8-2.8,6-6c0-0.3,0.3-0.5,0.5-0.5c0.3,0,0.5,0.3,0.5,0.5c-0.3,3.7-3.2,6.7-7,7C9.3,18.5,9.1,18.5,9,18.5z"/>
		</g>
		<path id="矩形_80_2_" class="st0" d="M4.5,5.5h2C6.7,5.5,7,5.7,7,6l0,0c0,0.3-0.2,0.5-0.5,0.5h-2C4.2,6.5,4,6.3,4,6l0,0
			C4,5.7,4.2,5.5,4.5,5.5z"/>
		<path id="矩形_81_2_" class="st0" d="M4.5,7.5h2C6.7,7.5,7,7.7,7,8l0,0c0,0.3-0.2,0.5-0.5,0.5h-2C4.2,8.5,4,8.3,4,8l0,0
			C4,7.7,4.2,7.5,4.5,7.5z"/>
		<path id="矩形_84_2_" class="st0" d="M11.5,7.5h2C13.7,7.5,14,7.7,14,8l0,0c0,0.3-0.2,0.5-0.5,0.5h-2C11.2,8.5,11,8.3,11,8l0,0
			C11,7.7,11.2,7.5,11.5,7.5z"/>
		<path id="矩形_85_2_" class="st0" d="M11.5,9.5h2c0.3,0,0.5,0.2,0.5,0.5l0,0c0,0.3-0.2,0.5-0.5,0.5h-2c-0.3,0-0.5-0.2-0.5-0.5
			l0,0C11,9.7,11.2,9.5,11.5,9.5z"/>
	</g>
</g>
</svg>
