<?xml version="1.0" encoding="utf-8"?>
<!-- Generator: Adobe Illustrator 24.2.1, SVG Export Plug-In . SVG Version: 6.00 Build 0)  -->
<svg version="1.1" id="图层_1" xmlns="http://www.w3.org/2000/svg" xmlns:xlink="http://www.w3.org/1999/xlink" x="0px" y="0px"
	 width="20px" height="22px" viewBox="0 0 20 22" style="enable-background:new 0 0 20 22;" xml:space="preserve">
<style type="text/css">
	.st0{fill:#FFFFFF;}
	.st1{opacity:0.85;}
	.st2{opacity:0.85;fill:#FFFFFF;}
	.st3{opacity:0.85;fill:#FFFFFF;enable-background:new    ;}
</style>
<g id="组_35_1_" transform="translate(-62.49 -1)" class="st1">
	<g id="组件_7_6_1_" transform="translate(63.025 1)">
		<g id="矩形_77_1_" transform="translate(1.975)">
			<g>
				<path class="st0" d="M7,16c-2.8,0-5-2.2-5-5V5c0-2.8,2.2-5,5-5s5,2.2,5,5v6C12,13.8,9.7,16,7,16z M7,1C4.8,1,3,2.8,3,5v6
					c0,2.2,1.8,4,4,4s4-1.8,4-4V5C11,2.8,9.2,1,7,1z"/>
			</g>
		</g>
		<path id="矩形_78_1_" class="st0" d="M8.9,17.5L8.9,17.5c0.3,0,0.5,0.2,0.5,0.5v3c0,0.3-0.2,0.5-0.5,0.5l0,0
			c-0.3,0-0.5-0.2-0.5-0.5v-3C8.4,17.7,8.7,17.5,8.9,17.5z"/>
		<path id="矩形_79_1_" class="st0" d="M4.4,21h9c0.3,0,0.5,0.2,0.5,0.5l0,0c0,0.3-0.2,0.5-0.5,0.5h-9c-0.3,0-0.5-0.2-0.5-0.5l0,0
			C3.9,21.2,4.2,21,4.4,21z"/>
		<g id="路径_79_1_">
			<path class="st0" d="M8.9,18.5c-1.8,0-3.5-0.6-4.9-1.8c-1.5-1.3-2.4-3.1-2.6-5.1c0-0.3,0.2-0.5,0.5-0.5c0.3,0,0.5,0.2,0.5,0.5
				c0.1,1.7,0.9,3.3,2.2,4.4c1.3,1.1,3,1.7,4.7,1.6c3.2-0.2,5.8-2.8,6-6c0-0.3,0.3-0.5,0.5-0.5c0.3,0,0.5,0.3,0.5,0.5
				c-0.3,3.7-3.2,6.7-7,7C9.3,18.5,9.1,18.5,8.9,18.5z"/>
		</g>
		<path id="矩形_80_1_" class="st0" d="M4.4,5.5h2c0.3,0,0.5,0.2,0.5,0.5l0,0c0,0.3-0.2,0.5-0.5,0.5h-2C4.2,6.5,3.9,6.3,3.9,6l0,0
			C3.9,5.7,4.2,5.5,4.4,5.5z"/>
		<path id="矩形_81_1_" class="st0" d="M4.4,7.5h2c0.3,0,0.5,0.2,0.5,0.5l0,0c0,0.3-0.2,0.5-0.5,0.5h-2C4.2,8.5,3.9,8.3,3.9,8l0,0
			C3.9,7.7,4.2,7.5,4.4,7.5z"/>
		<path id="矩形_82_1_" class="st0" d="M4.4,9.5h2c0.3,0,0.5,0.2,0.5,0.5l0,0c0,0.3-0.2,0.5-0.5,0.5h-2c-0.3,0-0.5-0.2-0.5-0.5
			l0,0C3.9,9.7,4.2,9.5,4.4,9.5z"/>
		<path id="矩形_83_1_" class="st0" d="M11.4,5.5h2c0.3,0,0.5,0.2,0.5,0.5l0,0c0,0.3-0.2,0.5-0.5,0.5h-2c-0.3,0-0.5-0.2-0.5-0.5
			l0,0C10.9,5.7,11.2,5.5,11.4,5.5z"/>
		<path id="矩形_84_1_" class="st0" d="M11.4,7.5h2c0.3,0,0.5,0.2,0.5,0.5l0,0c0,0.3-0.2,0.5-0.5,0.5h-2c-0.3,0-0.5-0.2-0.5-0.5
			l0,0C10.9,7.7,11.2,7.5,11.4,7.5z"/>
		<path id="矩形_85_1_" class="st0" d="M11.4,9.5h2c0.3,0,0.5,0.2,0.5,0.5l0,0c0,0.3-0.2,0.5-0.5,0.5h-2c-0.3,0-0.5-0.2-0.5-0.5
			l0,0C10.9,9.7,11.2,9.5,11.4,9.5z"/>
	</g>
</g>
</svg>
