<?xml version="1.0" encoding="utf-8"?>
<!-- Generator: Adobe Illustrator 24.2.1, SVG Export Plug-In . SVG Version: 6.00 Build 0)  -->
<svg version="1.1" id="图层_1" xmlns="http://www.w3.org/2000/svg" xmlns:xlink="http://www.w3.org/1999/xlink" x="0px" y="0px"
	 width="20px" height="22px" viewBox="0 0 20 22" style="enable-background:new 0 0 20 22;" xml:space="preserve">
<style type="text/css">
	.st0{fill:#FFFFFF;}
	.st1{opacity:0.85;}
	.st2{opacity:0.85;fill:#FFFFFF;}
	.st3{opacity:0.85;fill:#FFFFFF;enable-background:new    ;}
</style>
<g id="组件_15_1" class="st1">
	<g id="矩形_98">
		<path class="st0" d="M7.5,5L7.5,5C7.8,5,8,5.2,8,5.5v11C8,16.8,7.8,17,7.5,17l0,0C7.2,17,7,16.8,7,16.5v-11C7,5.2,7.2,5,7.5,5z"/>
	</g>
	<g id="矩形_99">
		<path class="st0" d="M12.5,5L12.5,5C12.8,5,13,5.2,13,5.5v11c0,0.3-0.2,0.5-0.5,0.5l0,0c-0.3,0-0.5-0.2-0.5-0.5v-11
			C12,5.2,12.2,5,12.5,5z"/>
	</g>
	<g id="矩形_100">
		<g>
			<path class="st0" d="M4,1h12c2.2,0,4,1.8,4,4v12c0,2.2-1.8,4-4,4H4c-2.2,0-4-1.8-4-4V5C0,2.8,1.8,1,4,1z"/>
		</g>
		<g>
			<path class="st0" d="M16,21H4c-2.2,0-4-1.8-4-4V5c0-2.2,1.8-4,4-4h12c2.2,0,4,1.8,4,4v12C20,19.2,18.2,21,16,21z M4,2
				C2.3,2,1,3.3,1,5v12c0,1.7,1.3,3,3,3h12c1.7,0,3-1.3,3-3V5c0-1.7-1.3-3-3-3H4z"/>
		</g>
	</g>
</g>
</svg>
