<?xml version="1.0" encoding="utf-8"?>
<!-- Generator: Adobe Illustrator 24.2.1, SVG Export Plug-In . SVG Version: 6.00 Build 0)  -->
<svg version="1.1" id="图层_1" xmlns="http://www.w3.org/2000/svg" xmlns:xlink="http://www.w3.org/1999/xlink" x="0px" y="0px"
	 width="16px" height="16px" viewBox="0 0 16 16" style="enable-background:new 0 0 16 16;" xml:space="preserve">
<style type="text/css">
	.st0{fill:#FFFFFF;}
	.st1{opacity:0.85;}
	.st2{opacity:0.85;fill:#FFFFFF;}
	.st3{opacity:0.85;fill:#FFFFFF;enable-background:new    ;}
</style>
<g id="layer1" transform="translate(-37.8 16.2)">
	<path id="路径_58" class="st0" d="M52.9-9.4L47-15.3c-0.2-0.2-0.5-0.2-0.7,0c-0.2,0.2-0.2,0.5,0,0.7l1,1l-3.7,3.6
		c-0.1,0.1-0.1,0.1-0.2,0.1l-2.8,0.7C40.2-9,40-8.7,40.1-8.5c0,0.1,0.1,0.2,0.1,0.2l2.4,2.4l-3.9,3.9c-0.2,0.2-0.2,0.5,0,0.7
		C39-1,39.3-1,39.5-1.1l3.9-3.9l2.4,2.4c0.2,0.2,0.5,0.2,0.7,0c0.1-0.1,0.1-0.1,0.1-0.2l0.7-2.8c0-0.1,0.1-0.2,0.1-0.2l3.6-3.7l1,1
		c0.2,0.2,0.5,0.2,0.7,0C53-8.9,53-9.2,52.9-9.4L52.9-9.4z M50.1-10l-3.4,3.5c-0.1,0.1-0.1,0.1-0.1,0.2l-0.4,1.4
		c-0.1,0.3-0.3,0.4-0.6,0.4c-0.1,0-0.2-0.1-0.2-0.1l-3.1-3.1c-0.2-0.2-0.2-0.5,0-0.7c0.1-0.1,0.1-0.1,0.2-0.1l1.4-0.4
		C43.9-8.9,44-9,44-9l3.5-3.4c0.2-0.2,0.5-0.2,0.7,0l1.8,1.8C50.2-10.4,50.2-10.1,50.1-10C50.1-10,50.1-10,50.1-10L50.1-10z"/>
</g>
</svg>
